<?xml version="1.0" encoding="utf-8"?>

<!-- License Agreement at http://iconmonstr.com/license/ -->

<!DOCTYPE svg PUBLIC "-//W3C//DTD SVG 1.1//EN" "http://www.w3.org/Graphics/SVG/1.1/DTD/svg11.dtd">
<svg version="1.1" xmlns="http://www.w3.org/2000/svg" xmlns:xlink="http://www.w3.org/1999/xlink" x="0px" y="0px"
	 width="512px" height="512px" viewBox="0 0 512 512" style="enable-background:new 0 0 512 512;" xml:space="preserve">
<path id="adhesive-bandage-2" d="M421.514,89.966C393.266,61.718,364.918,50,341.397,50c-16.681,0-30.913,5.893-40.989,15.959
	L65.959,300.408C55.884,310.484,50,324.734,50,341.397c0,23.521,11.718,51.868,39.966,80.116c28.65,28.65,57.2,40.486,80.804,40.486
	c16.647,0,30.83-5.885,40.872-15.926l234.433-234.433C456.115,201.6,462,187.417,462,170.77
	C462,147.166,450.147,118.616,421.514,89.966z M397.239,114.241c31.718,31.718,36.329,61.357,24.56,73.126l-48.566,48.55
	l-97.099-97.099l48.55-48.566C336.452,78.482,365.891,82.892,397.239,114.241z M348.958,260.191l-88.767,88.767l-97.099-97.099
	l88.767-88.767L348.958,260.191z M114.241,397.239c-31.349-31.349-35.758-60.787-23.99-72.556l48.566-48.55l97.099,97.099
	l-48.55,48.566C175.598,433.568,145.959,428.957,114.241,397.239z M147.904,327.718c-5.029,5.029-13.177,5.029-18.206,0
	s-5.029-13.177,0-18.206c5.029-5.013,13.177-5.029,18.206,0S152.933,322.705,147.904,327.718z M202.539,364.146
	c-5.029-5.029-13.193-5.029-18.206,0c-5.029,5.029-5.029,13.177,0,18.206c5.013,5.013,13.177,5.029,18.206,0
	C207.551,377.323,207.551,369.159,202.539,364.146z M175.229,336.82c-5.029-5.029-13.193-5.029-18.206,0
	c-5.029,5.029-5.029,13.178,0,18.207s13.177,5.029,18.206,0C180.242,349.998,180.259,341.85,175.229,336.82z M123.629,352.01
	c-5.029,5.012-13.177,5.029-18.206,0s-5.029-13.193,0-18.207c5.029-5.029,13.177-5.029,18.206,0S128.658,346.98,123.629,352.01z
	 M178.247,388.422c-5.029-5.029-13.177-5.029-18.206,0c-5.013,5.029-5.029,13.176,0,18.205s13.193,5.029,18.206,0
	C183.276,401.598,183.276,393.451,178.247,388.422z M150.938,361.096c-5.013-5.013-13.177-5.029-18.206,0
	c-5.013,5.029-5.013,13.193,0,18.206c5.029,5.029,13.193,5.029,18.206,0C155.967,374.272,155.967,366.125,150.938,361.096z
	 M352.01,123.629c-5.029,5.029-13.178,5.029-18.207,0s-5.029-13.177,0-18.206c5.014-5.029,13.178-5.029,18.207,0
	S357.021,118.6,352.01,123.629z M406.627,160.041c-5.029-5.029-13.176-5.013-18.205,0c-5.029,5.029-5.029,13.177,0,18.206
	s13.176,5.029,18.205,0C411.656,173.234,411.656,165.07,406.627,160.041z M379.302,132.732c-5.013-5.013-13.177-5.013-18.206,0
	c-5.029,5.029-5.013,13.193,0,18.206c5.029,5.029,13.177,5.029,18.206,0C384.331,145.925,384.331,137.761,379.302,132.732z
	 M327.718,147.904c-5.013,5.029-13.177,5.029-18.206,0s-5.013-13.177,0-18.206c5.029-5.029,13.193-5.029,18.223,0
	S332.747,142.875,327.718,147.904z M382.353,184.316c-5.029-5.029-13.177-5.013-18.206,0.017c-5.029,5.013-5.029,13.177,0,18.206
	c5.013,5.013,13.177,5.013,18.206,0C387.382,197.509,387.382,189.345,382.353,184.316z M355.027,157.007
	c-5.014-5.013-13.178-5.013-18.207,0.017c-5.029,5.013-5.029,13.177,0,18.206s13.178,5.013,18.207,0
	C360.057,170.2,360.057,162.036,355.027,157.007z"/>
</svg>
